<?xml version="1.0" encoding="UTF-8" standalone="no"?><svg xmlns="http://www.w3.org/2000/svg" xmlns:xlink="http://www.w3.org/1999/xlink" contentScriptType="application/ecmascript" contentStyleType="text/css" height="285px" preserveAspectRatio="none" style="width:167px;height:285px;background:#FFFFFF;" version="1.1" viewBox="0 0 167 285" width="167px" zoomAndPan="magnify"><defs><filter height="300%" id="f10mifm8zk9rlb" width="300%" x="-1" y="-1"><feGaussianBlur result="blurOut" stdDeviation="2.0"/><feColorMatrix in="blurOut" result="blurOut2" type="matrix" values="0 0 0 0 0 0 0 0 0 0 0 0 0 0 0 0 0 0 .4 0"/><feOffset dx="4.0" dy="4.0" in="blurOut2" result="blurOut3"/><feBlend in="SourceGraphic" in2="blurOut3" mode="normal"/></filter></defs><g><!--MD5=[9bb0bdd047fba1a3c8d48282c35b4537]
class Post--><rect fill="#FEFECE" filter="url(#f10mifm8zk9rlb)" height="48" id="Post" style="stroke:#A80036;stroke-width:1.5;" width="60" x="50" y="7"/><ellipse cx="65" cy="23" fill="#ADD1B2" rx="11" ry="11" style="stroke:#A80036;stroke-width:1.0;"/><path d="M67.9688,28.6406 Q67.3906,28.9375 66.75,29.0781 Q66.1094,29.2344 65.4063,29.2344 Q62.9063,29.2344 61.5781,27.5938 Q60.2656,25.9375 60.2656,22.8125 Q60.2656,19.6875 61.5781,18.0313 Q62.9063,16.375 65.4063,16.375 Q66.1094,16.375 66.75,16.5313 Q67.4063,16.6875 67.9688,16.9844 L67.9688,19.7031 Q67.3438,19.125 66.75,18.8594 Q66.1563,18.5781 65.5313,18.5781 Q64.1875,18.5781 63.5,19.6563 Q62.8125,20.7188 62.8125,22.8125 Q62.8125,24.9063 63.5,25.9844 Q64.1875,27.0469 65.5313,27.0469 Q66.1563,27.0469 66.75,26.7813 Q67.3438,26.5 67.9688,25.9219 L67.9688,28.6406 Z " fill="#000000"/><text fill="#000000" font-family="sans-serif" font-size="12" lengthAdjust="spacing" textLength="28" x="79" y="27.1543">Post</text><line style="stroke:#A80036;stroke-width:1.5;" x1="51" x2="109" y1="39" y2="39"/><line style="stroke:#A80036;stroke-width:1.5;" x1="51" x2="109" y1="47" y2="47"/><!--MD5=[3dff5797956c0c03ff7b886d7c7abeb8]
class PostPublish--><rect fill="#FEFECE" filter="url(#f10mifm8zk9rlb)" height="48" id="PostPublish" style="stroke:#A80036;stroke-width:1.5;" width="105" x="27.5" y="115"/><ellipse cx="42.5" cy="131" fill="#ADD1B2" rx="11" ry="11" style="stroke:#A80036;stroke-width:1.0;"/><path d="M45.4688,136.6406 Q44.8906,136.9375 44.25,137.0781 Q43.6094,137.2344 42.9063,137.2344 Q40.4063,137.2344 39.0781,135.5938 Q37.7656,133.9375 37.7656,130.8125 Q37.7656,127.6875 39.0781,126.0313 Q40.4063,124.375 42.9063,124.375 Q43.6094,124.375 44.25,124.5313 Q44.9063,124.6875 45.4688,124.9844 L45.4688,127.7031 Q44.8438,127.125 44.25,126.8594 Q43.6563,126.5781 43.0313,126.5781 Q41.6875,126.5781 41,127.6563 Q40.3125,128.7188 40.3125,130.8125 Q40.3125,132.9063 41,133.9844 Q41.6875,135.0469 43.0313,135.0469 Q43.6563,135.0469 44.25,134.7813 Q44.8438,134.5 45.4688,133.9219 L45.4688,136.6406 Z " fill="#000000"/><text fill="#000000" font-family="sans-serif" font-size="12" lengthAdjust="spacing" textLength="73" x="56.5" y="135.1543">PostPublish</text><line style="stroke:#A80036;stroke-width:1.5;" x1="28.5" x2="131.5" y1="147" y2="147"/><line style="stroke:#A80036;stroke-width:1.5;" x1="28.5" x2="131.5" y1="155" y2="155"/><!--MD5=[4bc3dc3189382b17a84f92628e16192a]
class PostPublishDelete--><rect fill="#FEFECE" filter="url(#f10mifm8zk9rlb)" height="48" id="PostPublishDelete" style="stroke:#A80036;stroke-width:1.5;" width="146" x="7" y="223"/><ellipse cx="22" cy="239" fill="#ADD1B2" rx="11" ry="11" style="stroke:#A80036;stroke-width:1.0;"/><path d="M24.9688,244.6406 Q24.3906,244.9375 23.75,245.0781 Q23.1094,245.2344 22.4063,245.2344 Q19.9063,245.2344 18.5781,243.5938 Q17.2656,241.9375 17.2656,238.8125 Q17.2656,235.6875 18.5781,234.0313 Q19.9063,232.375 22.4063,232.375 Q23.1094,232.375 23.75,232.5313 Q24.4063,232.6875 24.9688,232.9844 L24.9688,235.7031 Q24.3438,235.125 23.75,234.8594 Q23.1563,234.5781 22.5313,234.5781 Q21.1875,234.5781 20.5,235.6563 Q19.8125,236.7188 19.8125,238.8125 Q19.8125,240.9063 20.5,241.9844 Q21.1875,243.0469 22.5313,243.0469 Q23.1563,243.0469 23.75,242.7813 Q24.3438,242.5 24.9688,241.9219 L24.9688,244.6406 Z " fill="#000000"/><text fill="#000000" font-family="sans-serif" font-size="12" lengthAdjust="spacing" textLength="114" x="36" y="243.1543">PostPublishDelete</text><line style="stroke:#A80036;stroke-width:1.5;" x1="8" x2="152" y1="255" y2="255"/><line style="stroke:#A80036;stroke-width:1.5;" x1="8" x2="152" y1="263" y2="263"/><!--MD5=[9220647cdeba87a767de037e4fad567d]
link Post to PostPublish--><path codeLine="2" d="M80,63.5311 C80,77.1909 80,93.0401 80,106.6775 " fill="none" id="Post-PostPublish" style="stroke:#A80036;stroke-width:1.0;stroke-dasharray:7.0,7.0;"/><line style="stroke:#A80036;stroke-width:1.0;" x1="80" x2="86" y1="106.8436" y2="114.8436"/><line style="stroke:#A80036;stroke-width:1.0;" x1="80" x2="74" y1="106.8436" y2="114.8436"/><line style="stroke:#A80036;stroke-width:1.0;" x1="80" x2="80" y1="106.8436" y2="114.8436"/><line style="stroke:#A80036;stroke-width:1.0;" x1="84" x2="76" y1="104.8436" y2="104.8436"/><line style="stroke:#A80036;stroke-width:1.0;" x1="76" x2="84" y1="59.2373" y2="59.2373"/><line style="stroke:#A80036;stroke-width:1.0;" x1="76" x2="84" y1="62.2373" y2="62.2373"/><line style="stroke:#A80036;stroke-width:1.0;" x1="80" x2="80" y1="63.2373" y2="55.2373"/><!--MD5=[b2d3fc8780becd6d57b2d43390ff1afa]
link PostPublish to PostPublishDelete--><path codeLine="3" d="M80,171.5311 C80,185.1909 80,201.0401 80,214.6775 " fill="none" id="PostPublish-PostPublishDelete" style="stroke:#A80036;stroke-width:1.0;stroke-dasharray:7.0,7.0;"/><line style="stroke:#A80036;stroke-width:1.0;" x1="80" x2="80" y1="211.8436" y2="222.8436"/><ellipse cx="80" cy="211.8436" rx="4" ry="4" style="stroke:#A80036;stroke-width:1.0;fill:none;"/><line style="stroke:#A80036;stroke-width:1.0;fill:none;" x1="84" x2="76" y1="218.8436" y2="218.8436"/><line style="stroke:#A80036;stroke-width:1.0;fill:none;" x1="76" x2="84" y1="167.2373" y2="167.2373"/><line style="stroke:#A80036;stroke-width:1.0;fill:none;" x1="76" x2="84" y1="170.2373" y2="170.2373"/><line style="stroke:#A80036;stroke-width:1.0;fill:none;" x1="80" x2="80" y1="171.2373" y2="163.2373"/><!--MD5=[0511e766936b278365ba9b7f8a2f7ea9]
@startuml immutable-data-model-in-rails

Post ||..|{ PostPublish
PostPublish ||..o|PostPublishDelete

@enduml

PlantUML version 1.2021.7(Sun May 23 12:40:07 UTC 2021)
(GPL source distribution)
Java Runtime: OpenJDK Runtime Environment
JVM: OpenJDK 64-Bit Server VM
Default Encoding: UTF-8
Language: en
Country: null
--></g></svg>